PathFileType	4	(X/Y/Z)	\\147.46.242.158\로컬 디스크 (e)\MOCAP Data\Iguana Capture\iguana\Project 2\Capture day 7\Session 2\Take13.trc
DataRate	CameraRate	NumFrames	NumMarkers	Units	OrigDataRate	OrigDataStartFrame	OrigNumFrames
120.0	120.0	8	23	mm	120.0	62	7542
Frame#	Time	ana:head1			ana:head2			ana:bone1			ana:bone2			ana:bone3			ana:tail1			ana:tail2			ana:tail3			ana:tail4			ana:Rforefoot1			ana:Rforefoot2			ana:Rforefoot3			ana:Lforefoot1			ana:Lforefoot2			ana:Lforefoot3			ana:RhindLeg1			ana:RhindLeg2			ana:RhindLeg3			ana:RhindLeg4			ana:LhindLeg1			ana:LhindLeg2			ana:LhindLeg3			ana:LhindLeg4			
		X1	Y1	Z1	X2	Y2	Z2	X3	Y3	Z3	X4	Y4	Z4	X5	Y5	Z5	X6	Y6	Z6	X7	Y7	Z7	X8	Y8	Z8	X9	Y9	Z9	X10	Y10	Z10	X11	Y11	Z11	X12	Y12	Z12	X13	Y13	Z13	X14	Y14	Z14	X15	Y15	Z15	X16	Y16	Z16	X17	Y17	Z17	X18	Y18	Z18	X19	Y19	Z19	X20	Y20	Z20	X21	Y21	Z21	X22	Y22	Z22	X23	Y23	Z23	

5441	45.333	495.83295	173.79181	48.80058	485.59033	177.04604	49.61600	464.65036	183.90500	43.72069	441.43176	199.50995	40.28653	417.89716	222.71407	31.21388	403.29764	249.60670	23.05804	389.01324	282.78531	13.28707	372.02814	320.63605	7.52948	353.88388	358.48157	4.20095	462.80981	167.81853	26.71231	452.53970	161.51939	16.41871	462.55725	163.59729	1.87411	470.59811	191.44305	27.93705	466.20087	203.25642	25.01793	465.29089	199.61647	5.61382	408.87970	218.43469	25.08187	390.16394	217.19905	20.63953	378.92361	234.47943	10.30237	374.78189	224.93939	4.79169	424.30206	229.04417	22.85646	434.89832	240.06813	13.83519	420.93347	247.39748	2.15325	431.55310	243.95599	1.85367	
5442	45.342	497.63336	172.71346	48.69028	487.39536	175.91829	49.49589	466.50961	183.26796	43.58416	443.42514	199.10783	40.33950	419.53555	221.98529	31.45684	404.17517	248.50098	23.40257	389.72485	281.60049	13.44227	372.83405	319.47604	7.51894	354.73279	357.30753	4.19435	464.14725	167.18021	26.74011	453.25879	161.54030	16.81025	462.54315	163.79192	1.85073	473.24161	190.66713	28.67294	469.56464	202.99228	26.92702	470.71143	200.94810	7.66179	410.37628	217.59729	25.41501	391.74722	216.30399	21.02894	379.58389	233.65556	11.11781	375.24689	224.05360	5.33333	425.54675	228.52296	23.04069	435.21774	240.04482	13.51773	420.80377	247.04131	2.10076	431.60062	243.94458	1.93241	
5443	45.350	499.43082	171.68660	48.53398	489.24939	174.78027	49.35174	468.38754	182.71291	43.44774	445.44943	198.82068	40.37623	421.09619	221.39044	31.71889	405.03024	247.45186	23.77025	390.33118	280.38992	13.63333	373.49463	318.25955	7.55711	355.42276	356.14090	4.19651	465.48557	166.64612	26.73068	454.02286	161.56885	17.22770	462.60620	163.83047	1.93360	475.76212	189.84828	29.28463	472.82880	202.44563	28.47118	476.16739	201.37943	9.53135	411.93744	216.87581	25.75909	393.40491	215.35040	21.45599	380.36856	232.64200	11.97223	375.78229	223.26340	5.91444	426.83014	228.06357	23.22397	435.53464	240.05478	13.25595	420.71323	246.76013	2.09774	431.70264	244.11319	2.15460	
5444	45.358	501.20230	170.71794	48.35334	491.12003	173.73570	49.17104	470.28934	182.18866	43.33875	447.46603	198.62932	40.44381	422.76419	220.88214	31.95916	405.86960	246.45024	24.12041	390.85077	279.21866	13.89937	374.03366	316.95551	7.61051	355.97916	354.91678	4.19586	466.79214	166.23544	26.69046	454.78162	161.64803	17.61686	462.72766	163.72758	2.07366	478.10797	188.99602	29.72725	475.97852	201.67596	29.46575	481.49054	200.98674	11.13185	413.64462	216.07137	26.12337	395.13626	214.21300	21.94100	381.34161	231.46498	12.86883	376.52252	222.58295	6.50239	428.11673	227.63733	23.35074	435.85416	240.16966	13.13725	420.67401	246.55511	2.17833	431.81763	244.29227	2.36945	
5445	45.367	502.92776	169.80669	48.14930	493.02997	172.88931	48.95537	472.18158	181.68585	43.24711	449.45859	198.45607	40.53241	424.48489	220.33226	32.25682	406.69623	245.49074	24.46364	391.34262	277.98782	14.20234	374.49835	315.61108	7.68025	356.41885	353.64441	4.19321	468.07147	165.90611	26.60652	455.56244	161.69612	18.03861	462.89722	163.43938	2.28588	480.26733	188.14088	29.98284	478.99701	200.82419	29.97437	486.63788	199.91275	12.52030	415.38031	215.27626	26.51296	396.94229	212.88902	22.53653	382.61002	230.01633	13.76361	377.54422	221.73985	7.14344	429.40042	227.28319	23.47805	436.18793	240.38728	13.18907	420.70093	246.42879	2.35980	431.91541	244.46202	2.53451	
5446	45.375	504.60861	168.94490	47.91235	494.91302	172.20137	48.72349	474.03818	181.19629	43.16991	451.42841	198.24954	40.57682	426.16937	219.84595	32.52927	407.48444	244.52032	24.77953	391.81366	276.71237	14.50153	374.92108	314.20987	7.74440	356.80109	352.29443	4.18017	469.33020	165.58736	26.54079	456.35709	161.70827	18.44618	463.11182	163.03391	2.52306	482.27350	187.31931	30.02132	481.96906	199.92621	30.04043	491.47348	198.32449	13.69517	417.14615	214.46648	26.88221	398.84927	211.25092	23.26399	384.30231	228.17274	14.61602	378.82547	220.59654	7.84721	430.64960	226.94460	23.55484	436.49417	240.63576	13.35045	420.75760	246.27545	2.60126	431.92426	244.43275	2.56706	
5447	45.383	506.23523	168.05095	47.67634	496.73041	171.58038	48.45132	475.84384	180.69879	43.06082	453.35388	198.02242	40.61104	427.78052	219.37608	32.69849	408.26740	243.49017	25.09352	392.23996	275.39975	14.74898	375.34946	312.79626	7.80866	357.18121	350.88538	4.17956	470.55771	165.23849	26.47549	457.19061	161.76024	18.77517	463.29517	162.75304	2.74433	484.19357	186.53749	29.86449	484.89780	199.01633	29.77194	496.01566	196.44215	14.77549	418.91724	213.60670	27.17548	400.90891	209.25308	24.08406	386.39609	225.98363	15.35342	380.50809	219.12836	8.52153	431.92984	226.63051	23.69020	436.81885	240.81555	13.49294	420.84009	246.09569	2.89038	431.87363	244.24063	2.45286	
5448	45.392	507.82751	167.15022	47.44704	498.45218	170.97050	48.19228	477.58926	180.16978	42.89859	455.22980	197.72220	40.56394	429.32407	218.90854	32.80686	409.05661	242.35204	25.39945	392.63422	274.03690	14.96463	375.77698	311.36676	7.85478	357.59534	349.42572	4.17595	471.76947	164.85982	26.38986	458.03790	161.77231	19.11556	463.60818	162.76451	2.80153	486.06839	185.78668	29.56548	487.76645	198.12251	29.28254	500.26599	194.46111	15.83295	420.67078	212.76779	27.40606	403.19800	206.91425	24.96886	388.90540	223.45975	15.93863	382.55118	217.08273	9.18834	433.17065	226.28381	23.79566	437.14719	240.96642	13.67686	420.93796	245.90021	3.20793	431.78699	243.89423	2.19696	
